<svg width="57" height="61" viewBox="0 0 57 61" fill="none" xmlns="http://www.w3.org/2000/svg">
<rect x="8.5" width="40" height="40" rx="8" fill="#E9FFF8"/>
<path fill-rule="evenodd" clip-rule="evenodd" d="M33.2855 10H36.5521C37.9036 10 39 11.1059 39 12.4702V15.7641C39 17.1274 37.9036 18.2343 36.5521 18.2343H33.2855C31.933 18.2343 30.8366 17.1274 30.8366 15.7641V12.4702C30.8366 11.1059 31.933 10 33.2855 10Z" stroke="#67C4A7" stroke-width="1.5" stroke-linecap="round" stroke-linejoin="round"/>
<path fill-rule="evenodd" clip-rule="evenodd" d="M21.4489 10H24.7145C26.067 10 27.1634 11.1059 27.1634 12.4702V15.7641C27.1634 17.1274 26.067 18.2343 24.7145 18.2343H21.4489C20.0964 18.2343 19 17.1274 19 15.7641V12.4702C19 11.1059 20.0964 10 21.4489 10Z" stroke="#67C4A7" stroke-width="1.5" stroke-linecap="round" stroke-linejoin="round"/>
<path fill-rule="evenodd" clip-rule="evenodd" d="M21.4489 21.7657H24.7145C26.067 21.7657 27.1634 22.8716 27.1634 24.237V27.5299C27.1634 28.8941 26.067 30 24.7145 30H21.4489C20.0964 30 19 28.8941 19 27.5299V24.237C19 22.8716 20.0964 21.7657 21.4489 21.7657Z" stroke="#67C4A7" stroke-width="1.5" stroke-linecap="round" stroke-linejoin="round"/>
<path fill-rule="evenodd" clip-rule="evenodd" d="M33.2855 21.7657H36.5521C37.9036 21.7657 39 22.8716 39 24.237V27.5299C39 28.8941 37.9036 30 36.5521 30H33.2855C31.933 30 30.8366 28.8941 30.8366 27.5299V24.237C30.8366 22.8716 31.933 21.7657 33.2855 21.7657Z" stroke="#67C4A7" stroke-width="1.5" stroke-linecap="round" stroke-linejoin="round"/>
<path d="M23.0124 58H21.9045L25.109 49.2727H26.1999L29.4045 58H28.2965L25.6886 50.6534H25.6204L23.0124 58ZM23.4215 54.5909H27.8874V55.5284H23.4215V54.5909ZM31.6332 49.2727V58H30.6275V49.2727H31.6332ZM34.4808 49.2727V58H33.4751V49.2727H34.4808Z" fill="#939393"/>
</svg>
